# xmcd
#
# Track frame offsets: 
#        150
#        11835
#        23998
#        37124
#        52174
#        62749
#        75065
#        88639
#        100412
#        112268
#        123776
#        134183
#        145265
#        156030
#        168187
#        178582
#        192066
#        205151
#        218776
#        231825
#        243548
#        255425
#        267199
#
# Disc length: 3740 seconds
#
# Revision: 0
# Processed by: cddbd v1.5.2PL0 Copyright (c) Steve Scherf et al.
# Submitted via: ExactAudioCopy v0.95b4
#
DISCID=460e9a17
DTITLE=Various Artist - Mississippi Blues Vol, 4
DYEAR=2007
DGENRE=Blues
TTITLE0=Little Girl In Rome
TTITLE1=Bad Notion Blues
TTITLE2=Got The Blues About Rome
TTITLE3=Seven Year Itch
TTITLE4=Ramblin' On my Mind
TTITLE5=Come On In My Kitchen
TTITLE6=Terraplane Blues
TTITLE7=Phonograph Blues
TTITLE8=Cross Road Blues
TTITLE9=Walkin' Blues
TTITLE10=Little Queen Of Spades
TTITLE11=Drunken Hearted Man
TTITLE12=Stop breakin' Down Blues
TTITLE13=Travelling Riverside Blues
TTITLE14=Love In Vain
TTITLE15=Black Spider Blues
TTITLE16=I'm Gonna Train My Baby
TTITLE17=Little Boy Blue
TTITLE18=Take A Little Walk With Me
TTITLE19=I'm Gonna Dig Myself A Hole
TTITLE20=Dust My Broom
TTITLE21=Aw Aw Baby
TTITLE22=Sweet Woman From Maine
EXTD=
EXTT0=
EXTT1=
EXTT2=
EXTT3=
EXTT4=
EXTT5=
EXTT6=
EXTT7=
EXTT8=
EXTT9=
EXTT10=
EXTT11=
EXTT12=
EXTT13=
EXTT14=
EXTT15=
EXTT16=
EXTT17=
EXTT18=
EXTT19=
EXTT20=
EXTT21=
EXTT22=
PLAYORDER=
